# xmcd
#
# Track frame offsets:
#	150
#	15904
#	33161
#	46860
#	63645
#	79066
#	98416
#	114993
#	131016
#	145691
#	158409
#
# Disc length: 2258 seconds
#
# Revision: 1
# Processed by: cddbd v1.5.2PL0 Copyright (c) Steve Scherf et al.
# Submitted via: audiograbber 1.83.01
#
DISCID=7608d00b
DTITLE=Randy Rogers Band - Nothing Shines Like Neon
DYEAR=2016
DGENRE=Country
TTITLE0=San Antone
TTITLE1=Rain And The Radio
TTITLE2=Neon Blues
TTITLE3=Things I Need To Quit
TTITLE4=Look Out Yonder
TTITLE5=Tequila Eyes
TTITLE6=Takin' It As It Comes
TTITLE7=Old Moon New
TTITLE8=Meet Me Tonight
TTITLE9=Actin' Crazy
TTITLE10=Pour One For The Poor One
EXTD=
EXTT0=
EXTT1=
EXTT2=
EXTT3=
EXTT4=
EXTT5=
EXTT6=
EXTT7=
EXTT8=
EXTT9=
EXTT10=
PLAYORDER=
